<svg width="189" height="189" viewBox="0 0 189 189" fill="none" xmlns="http://www.w3.org/2000/svg">
<path d="M158.015 179.321C161.498 174.364 165.339 169.634 168.468 164.502C174.644 154.391 179.073 143.595 182.217 132.596C187.199 115.181 189.03 97.2186 189 79.362C188.973 65.165 187.338 30.0041 183.941 33.9868C182.894 35.2198 180.54 49.1998 179.678 52.8298C177.425 62.3068 174.881 71.7444 171.86 81.0808C169.587 88.1016 157.78 113.899 156.93 115.221C156.345 116.131 154.509 117.854 154.413 118.843C155.115 111.692 154.067 90.1312 153.462 86.5678C153.151 84.7306 153.529 70.5385 149.488 75.404C147.759 77.4853 145.481 81.8872 143.517 83.8551C138.93 88.4518 130.633 95.0214 123.756 89.1423C114.747 81.4762 105.742 73.8101 96.7404 66.144C90.3592 60.7187 83.9822 55.2876 77.6092 49.8508C73.6273 46.4576 69.149 43.4539 65.4265 39.8535C64.0309 38.5021 62.3042 37.4491 63.6505 35.9078C64.3569 35.1014 66.0193 34.5121 67.0395 34.0361C72.5405 31.4813 76.4779 29.4295 87.1464 28.4135C100.367 28.268 97.4419 22.3249 99.3044 15.3978C101.399 7.61 105.005 -1.83248 99.9417 0.308045C35.2982 24.0906 0.654586 75.1525 0 132.261C3.40138 169.479 66.7702 144.098 107.172 178.522C120.78 190.346 147.573 194.174 158.015 179.321ZM90.6812 97.9535C91.3061 97.115 93.344 97.6773 95.1076 98.4861C99.9195 100.693 112.399 111.736 113.317 114.022C114.338 116.557 108.931 116.506 106.539 117.1C104.731 117.546 102.926 118.017 101.105 118.444C98.5115 119.055 98.719 118.148 98.4917 116.382C98.1212 113.499 97.1159 110.767 95.7746 108.089C94.4012 105.354 91.9335 102.777 90.7849 99.8671C90.4045 98.9202 90.4144 98.3111 90.6812 97.9535Z" fill="#E56399"/>
</svg>
